<?xml version="1.0" encoding="utf-8"?>
<!-- Generator: Adobe Illustrator 23.0.1, SVG Export Plug-In . SVG Version: 6.00 Build 0)  -->
<svg version="1.1" id="レイヤー_1" xmlns="http://www.w3.org/2000/svg" xmlns:xlink="http://www.w3.org/1999/xlink" x="0px"
	 y="0px" viewBox="0 0 196 72" style="enable-background:new 0 0 196 72;" xml:space="preserve">
<style type="text/css">
	.st0{fill:#FFFFFF;}
</style>
<title>release_top_logo</title>
<desc>Created with Sketch.</desc>
<g>
	<path class="st0" d="M113.1,13.4c-0.5,0-0.7,0.6-0.8,1h1.4C113.8,13.9,113.6,13.4,113.1,13.4z"/>
	<path class="st0" d="M43.3,16.4c0.5,0,0.7-0.7,0.7-1.5c0-0.7-0.2-1.5-0.7-1.5c-0.6,0-0.8,0.8-0.8,1.5
		C42.5,15.7,42.7,16.4,43.3,16.4z"/>
	<polygon class="st0" points="124.2,45.2 124.1,45.2 124.2,45.3 	"/>
	<path class="st0" d="M120.5,33.3L120.5,33.3c-0.4,1.5-0.8,3-1.3,4.6l-2.4,7.4h7.3l-2.4-7.2C121.3,36.3,120.9,34.7,120.5,33.3z"/>
	<path class="st0" d="M41.1,52.3c-0.5,0.1-1.1,0.3-1.6,0.4C40,52.5,40.6,52.5,41.1,52.3C41.1,52.3,41.1,52.3,41.1,52.3z"/>
	<path class="st0" d="M189.3,0H6.2c-3.3,0-6,2.7-6,6v59.6c0,3.3,2.7,6,6,6h183.1c3.3,0,6-2.7,6-6V6C195.3,2.7,192.6,0,189.3,0z
		 M144.9,12.3c1.4,0,2.3,1.1,2.3,2.6c0,1.9-1.2,2.6-2.3,2.6c-1.4,0-2.3-1-2.3-2.6C142.6,13.3,143.6,12.3,144.9,12.3z M138.3,12.4
		h0.7v-0.2c0-1.4,0.9-2.1,1.9-2.1c0.4,0,0.6,0,0.8,0.1l-0.1,1.2c-0.1,0-0.3-0.1-0.5-0.1c-0.6,0-0.6,0.6-0.6,1h0.9v1.1h-0.9v3.9H139
		v-3.9h-0.7V12.4z M134.1,12.4h0.6v-0.9l1.5-0.4v1.3h1v1.1h-1v1.9c0,0.6,0.2,0.8,0.6,0.8c0.2,0,0.3,0,0.4,0l0,1.2
		c-0.2,0.1-0.5,0.1-1,0.1c-1.5,0-1.6-1.3-1.6-1.9v-2.1h-0.6V12.4z M125.5,10.3h1.6v7.1h-1.6V10.3z M119.4,10.6
		c0.4-0.1,1.1-0.1,1.8-0.1c0.9,0,1.6,0.2,2,0.5c0.4,0.4,0.7,0.9,0.7,1.6c0,1.9-1.6,2.3-2.6,2.3c-0.2,0-0.3,0-0.4,0v2.4h-1.6V10.6z
		 M103.3,12.4l0.1,0.8h0c0.2-0.7,0.8-0.9,1.2-0.9c0.2,0,0.2,0,0.3,0v1.5c-0.1,0-0.2,0-0.4,0c-0.4,0-0.8,0.2-0.9,0.6
		c0,0.1-0.1,0.3-0.1,0.5v2.5H102V14c0-0.7,0-1.2,0-1.6H103.3z M98.4,12.3c1.2,0,2,0.8,2,2.5c0,0.2,0,0.5,0,0.7h-2.8
		c0,0.6,0.6,0.9,1.2,0.9c0.5,0,0.8-0.1,1.2-0.2l0.2,1.1c-0.5,0.2-1.1,0.3-1.6,0.3c-1.6,0-2.5-0.9-2.5-2.5
		C96.1,13.6,96.9,12.3,98.4,12.3z M80.1,12.4l0.1,0.6h0c0.2-0.3,0.7-0.7,1.4-0.7c0.6,0,1.1,0.3,1.2,0.8h0c0.2-0.3,0.6-0.8,1.4-0.8
		c1,0,1.5,0.7,1.5,2.1v3h-1.5v-2.8c0-0.6-0.1-1-0.6-1c-0.4,0-0.6,0.3-0.6,0.8v3h-1.5v-2.9c0-0.5-0.1-0.9-0.6-0.9
		c-0.2,0-0.6,0.2-0.6,0.8v3h-1.5V14c0-0.6,0-1.1,0-1.6H80.1z M70.1,10.5c0.7,0,1.2,0.1,1.4,0.2L71.1,12c-0.2-0.1-0.6-0.2-1-0.2
		c-1,0-1.8,0.7-1.8,2.2c0,1.4,0.7,2.2,1.8,2.2c0.4,0,0.8-0.1,1-0.2l0.2,1.3c-0.2,0.1-0.8,0.2-1.4,0.2c-2.2,0-3.2-1.5-3.2-3.4
		C66.7,11.6,68.3,10.5,70.1,10.5z M61,10.3h1.6v7.1H61V10.3z M52.8,10.3c0.5,0,0.8,0.3,0.8,0.8c0,0.5-0.3,0.8-0.8,0.8
		c-0.5,0-0.8-0.3-0.8-0.8C52,10.6,52.3,10.3,52.8,10.3z M53.5,12.4v5H52v-5H53.5z M49.6,12.3c0.4,0,0.8,0.1,1,0.2l-0.2,1.2
		c-0.2-0.1-0.4-0.1-0.7-0.1c-0.7,0-1.2,0.5-1.2,1.4c0,0.9,0.5,1.4,1.2,1.4c0.3,0,0.5,0,0.7-0.1l0.1,1.2c-0.2,0.1-0.7,0.2-1.1,0.2
		c-1.5,0-2.4-0.9-2.4-2.5C46.9,13.5,47.9,12.3,49.6,12.3z M43.3,12.3c1.4,0,2.3,1.1,2.3,2.6c0,1.9-1.2,2.6-2.3,2.6
		c-1.4,0-2.3-1-2.3-2.6C40.9,13.3,41.9,12.3,43.3,12.3z M37.1,14.5c-1.1-0.5-1.6-1.2-1.6-2c0-1.2,0.9-2.1,2.5-2.1
		c0.7,0,1.2,0.1,1.5,0.3L39.1,12c-0.2-0.1-0.7-0.3-1.2-0.3c-0.6,0-0.9,0.3-0.9,0.6c0,0.4,0.3,0.6,1.1,0.9c1.1,0.5,1.5,1.2,1.5,2
		c0,1.2-0.9,2.1-2.6,2.1c-0.7,0-1.4-0.2-1.7-0.4l0.3-1.3c0.4,0.2,0.9,0.4,1.5,0.4c0.7,0,1-0.3,1-0.7C38.1,15.1,37.8,14.8,37.1,14.5z
		 M54.6,56.4l-3.1,3.2c-0.1,0.1-0.1,0.1-0.2,0.1l2.7-2.8c0.4-0.4,0.3-1-0.1-1.5l-5.4-5.7c-0.2,0.1-0.5,0.3-0.7,0.4l5.5,5.8
		c0.4,0.4,0.5,1.1,0.1,1.5l-2.1,2.3l-0.5,0.6l-0.4,0.5c-0.4,0.4-1,0.3-1.4-0.2l-7.5-7.9c-0.1,0-0.1-0.1-0.1-0.1
		c-1.2,0.2-2.5,0.4-4,0.4c-0.7,0.1-1.4,0.1-2.2,0.1v6.5c0,0.5-0.3,0.9-0.6,0.9h-5c-0.4,0-0.6-0.4-0.6-0.9V26.8
		c0-0.5,0.3-0.9,0.6-0.9h5c0.1,0,0.1,0,0.4,0.1c0.1,0,0.1,0,0.2,0c0.4,0,0.6,0.1,1,0.1c9.3,0.8,15.4,6.5,15.4,13.5
		c0,3.3-1,6.3-3.2,8.7c-0.2,0.2-0.4,0.4-0.6,0.6c-0.2,0.1-0.4,0.4-0.6,0.5l0.4,0.4c0.2-0.1,0.4-0.4,0.6-0.5c0.3-0.1,0.5-0.4,0.7-0.6
		c2.7-2.5,3.9-5.8,3.9-9.4c0-6.1-4.6-11.2-11.9-12.9c7.9,1.5,12.9,6.8,12.9,13.2c0,3.9-1.3,7.2-4.4,9.7l5.3,5.6
		C54.9,55.4,54.9,56.1,54.6,56.4z M57.8,16.9L57.8,16.9c-0.3,0.4-0.8,0.6-1.3,0.6c-0.9,0-1.5-0.7-1.5-1.5c0-1.3,1.2-1.9,2.6-1.9
		c0-0.4-0.2-0.7-0.8-0.7c-0.5,0-0.9,0.1-1.2,0.3l-0.3-1c0.3-0.2,1-0.4,1.8-0.4c1.6,0,2.1,1,2.1,2.2v1.8c0,0.4,0,0.9,0.1,1.2h-1.4
		L57.8,16.9z M71.7,55.4H59V30.8h12.1v2.3h-9.5v8.4h8.9v2.2h-8.9v9.6h10.1V55.4z M74.9,17.5c-1.4,0-2.3-1-2.3-2.6
		c0-1.7,1-2.6,2.4-2.6c1.4,0,2.3,1.1,2.3,2.6C77.3,16.8,76,17.5,74.9,17.5z M90.7,55.4H78V30.8h2.7v22.3h10V55.4z M94.5,17.4H93
		v-2.8c0-0.6-0.1-1-0.6-1c-0.4,0-0.6,0.3-0.6,0.8v3h-1.5v-2.9c0-0.5-0.1-0.9-0.6-0.9c-0.2,0-0.6,0.2-0.6,0.8v3h-1.5V14
		c0-0.6,0-1.1,0-1.6h1.3l0.1,0.6h0c0.2-0.3,0.7-0.7,1.4-0.7c0.6,0,1.1,0.3,1.2,0.8h0c0.2-0.3,0.6-0.8,1.4-0.8c1,0,1.5,0.7,1.5,2.1
		V17.4z M107.6,55.4H94.9V30.8H107v2.3h-9.5v8.4h8.9v2.2h-8.9v9.6h10.1V55.4z M108.8,16.3c0.3,0,0.5,0,0.7-0.1l0.1,1.2
		c-0.2,0.1-0.7,0.2-1.1,0.2c-1.5,0-2.4-0.9-2.4-2.5c0-1.5,1-2.6,2.6-2.6c0.4,0,0.8,0.1,1,0.2l-0.2,1.2c-0.2-0.1-0.4-0.1-0.7-0.1
		c-0.7,0-1.2,0.5-1.2,1.4C107.6,15.8,108.1,16.3,108.8,16.3z M113.2,12.3c1.2,0,2,0.8,2,2.5c0,0.2,0,0.5,0,0.7h-2.8
		c0,0.6,0.6,0.9,1.2,0.9c0.5,0,0.8-0.1,1.2-0.2l0.2,1.1c-0.5,0.2-1.1,0.3-1.6,0.3c-1.6,0-2.5-0.9-2.5-2.5
		C110.9,13.6,111.7,12.3,113.2,12.3z M127.3,55.4l-2.6-7.9h-8.4l-2.5,7.9h-2.7l7.9-24.6h3l8,24.6H127.3z M131.4,17.4l-0.1-0.5h0
		c-0.3,0.4-0.8,0.6-1.3,0.6c-0.9,0-1.5-0.7-1.5-1.5c0-1.3,1.2-1.9,2.6-1.9c0-0.4-0.2-0.7-0.8-0.7c-0.5,0-0.9,0.1-1.2,0.3l-0.3-1
		c0.3-0.2,1-0.4,1.8-0.4c1.6,0,2.1,1,2.1,2.2v1.8c0,0.4,0,0.9,0.1,1.2H131.4z M139.5,56.1c-2.3,0-4.6-0.7-5.9-1.5l0.8-2.3
		c1.3,0.8,3.3,1.5,5.3,1.5c3.3,0,5.3-1.8,5.3-4.4c0-2.4-1.3-3.9-4.6-5.2c-3.7-1.4-6.3-3.6-6.3-7c0-3.7,3-6.5,7.5-6.5
		c2.3,0,4.2,0.6,5.1,1.2l-0.8,2.2c-0.7-0.4-2.3-1.1-4.4-1.1c-3.4,0-4.7,2.1-4.7,3.9c0,2.4,1.5,3.7,4.8,5.1c4,1.7,6.1,3.7,6.1,7.2
		C147.7,53.2,144.8,56.1,139.5,56.1z M151.7,13.8c-0.1,0-0.2,0-0.4,0c-0.4,0-0.8,0.2-0.9,0.6c0,0.1-0.1,0.3-0.1,0.5v2.5h-1.6V14
		c0-0.7,0-1.2,0-1.6h1.3l0.1,0.8h0c0.2-0.7,0.8-0.9,1.2-0.9c0.2,0,0.2,0,0.3,0V13.8z M153.1,12.4h1.3l0.1,0.6h0
		c0.2-0.3,0.7-0.7,1.4-0.7c0.6,0,1.1,0.3,1.2,0.8h0c0.2-0.3,0.6-0.8,1.4-0.8c1,0,1.5,0.7,1.5,2.1v3h-1.5v-2.8c0-0.6-0.1-1-0.6-1
		c-0.4,0-0.6,0.3-0.6,0.8v3h-1.5v-2.9c0-0.5-0.1-0.9-0.6-0.9c-0.2,0-0.6,0.2-0.6,0.8v3h-1.5V14C153.1,13.4,153.1,12.9,153.1,12.4z
		 M166.7,56.1H154V30.8h12.1v2.3h-9.5v8.6h8.9V44h-8.9v9.8h10.1V56.1z"/>
	<path class="st0" d="M74.9,13.4c-0.6,0-0.8,0.8-0.8,1.5c0,0.8,0.2,1.5,0.8,1.5c0.5,0,0.7-0.7,0.7-1.5
		C75.7,14.2,75.5,13.4,74.9,13.4z"/>
	<path class="st0" d="M56.5,15.8c0,0.4,0.2,0.6,0.5,0.6c0.3,0,0.7-0.2,0.7-0.7V15C57.1,15,56.5,15.2,56.5,15.8z"/>
	<path class="st0" d="M45.5,38.1c-0.5-1.6-1.4-3.1-2.7-4.4c-1.1-1.1-2.4-2-3.9-2.7c-1.2-0.6-2.5-1-3.9-1.3v23v0.1
		c0.7-0.1,1.4-0.3,2-0.4c0.3-0.1,0.5-0.1,0.7-0.2c3.8-1.2,6.2-3.3,7.4-6c0.7-1.5,1.1-3.2,1.1-5.1c0-0.6-0.1-1.1-0.3-1.7
		C45.8,39,45.6,38.6,45.5,38.1z"/>
	<path class="st0" d="M98.3,13.4c-0.5,0-0.7,0.6-0.8,1H99C99,13.9,98.9,13.4,98.3,13.4z"/>
	<path class="st0" d="M144.9,16.4c0.5,0,0.7-0.7,0.7-1.5c0-0.7-0.2-1.5-0.7-1.5c-0.6,0-0.8,0.8-0.8,1.5
		C144.1,15.7,144.4,16.4,144.9,16.4z"/>
	<path class="st0" d="M130,15.8c0,0.4,0.2,0.6,0.5,0.6c0.3,0,0.7-0.2,0.7-0.7V15C130.6,15,130,15.2,130,15.8z"/>
	<path class="st0" d="M122.4,12.7c0-0.6-0.4-1-1-1c-0.2,0-0.4,0-0.5,0.1v2c0.1,0,0.2,0,0.4,0C122,13.7,122.4,13.3,122.4,12.7z"/>
</g>
</svg>
